                            TeamSPY Preasents


          Fast and Furious 6 (2013) Telugu Movie Dubbed-DvdScr -SPY
Fast and Furious 6 (2013)
Director: Justin Lin
Writers: Chris Morgan, Gary Scott Thompson 
Stars: Vin Diesel, Paul Walker, Dwayne Johnson 
MEDIA INFO:
General
Format : MPEG-4
Format profile : Base Media / Version 2
Codec ID : mp42
File size : 676 MiB
Duration : 2h 0mn
Overall bit rate : 785 Kbps
Encoded date : UTC 2013-06-04 12:10:15
Tagged date : UTC 2013-06-04 13:29:02

Video
ID : 1
Format : AVC
Format/Info : Advanced Video Codec
Format profile : Main@L3.0
Format settings, CABAC : Yes
Format settings, ReFrames : 2 frames
Codec ID : avc1
Codec ID/Info : Advanced Video Coding
Duration : 2h 0mn
Bit rate mode : Variable
Bit rate : 700 Kbps
Maximum bit rate : 3 274 Kbps
Width : 640 pixels
Height : 360 pixels
Display aspect ratio : 16:9
Original display aspect ratio : 2.586
Frame rate mode : Constant
Frame rate : 25.000 fps
Standard : PAL
Color space : YUV
Chroma subsampling : 4:2:0
Bit depth : 8 bits
Scan type : Progressive
Bits/(Pixel*Frame) : 0.121
Stream size : 603 MiB (89%)
Language : English
Encoded date : UTC 2013-06-04 12:10:16
Tagged date : UTC 2013-06-04 13:29:02

Audio
ID : 2
Format : AAC
Format/Info : Advanced Audio Codec
Format profile : LC
Codec ID : 40
Duration : 2h 0mn
Bit rate mode : Variable
Bit rate : 80.0 Kbps
Maximum bit rate : 86.3 Kbps
Channel(s) : 2 channels
Channel positions : Front: L R
Sampling rate : 48.0 KHz
Compression mode : Lossy
Stream size : 68.9 MiB (10%)
Title : Telugu
Language : Telugu
sCREENS: 
http://imageshack.us/a/img341/2309/92876529.png 
http://imageshack.us/a/img824/8817/69552767.png 
http://imageshack.us/a/img51/4592/12525674.png 
http://imageshack.us/a/img850/2218/70427699.png 
http://imageshack.us/a/img707/2545/49397740.png

Keep Seed Enjoy This Exclusive Release!!
TeamSPY
SPY

